<?xml version="1.0" encoding="UTF-8" standalone="no"?>
<svg width="55px" height="50px" viewBox="0 0 55 50" version="1.1" xmlns="http://www.w3.org/2000/svg" xmlns:xlink="http://www.w3.org/1999/xlink">
    <!-- Generator: Sketch 47.1 (45422) - http://www.bohemiancoding.com/sketch -->
    <title>Slice 1</title>
    <desc>Created with Sketch.</desc>
    <defs>
        <polygon id="path-1" points="17.7375 0 0 0 0 32.25 17.7375 32.25 35.475 32.25 35.475 0 17.7375 0"></polygon>
    </defs>
    <g id="Page-1" stroke="none" stroke-width="1" fill="none" fill-rule="evenodd">
        <g id="GLOBAL-/-Logos-/-Industry-Index">
            <g id="Page-1" stroke-width="1" transform="translate(9.762500, 8.875000)">
                <path d="M6.6,5.6875 C6.6,5.92912165 6.38453382,6.125 6.11875,6.125 C5.85296618,6.125 5.6375,5.92912165 5.6375,5.6875 C5.6375,5.44587835 5.85296618,5.25 6.11875,5.25 C6.38453382,5.25 6.6,5.44587835 6.6,5.6875" id="Fill-1" fill="#39D299"></path>
                <g id="Group-7">
                    <mask id="mask-2" fill="white">
                        <use xlink:href="#path-1"></use>
                    </mask>
                    <g id="Clip-6"></g>
                    <path d="M17.7375,0 C7.94138187,0 0,7.21943806 0,16.125 C0,25.0304912 7.94122634,32.2499293 17.7372667,32.25 L17.7375,32.25 C18.9620148,32.25 19.9547069,31.3475526 19.9547069,30.2343573 L19.9547069,30.2342159 L19.9547069,18.1406427 C19.9547069,17.0274474 18.9620148,16.125 17.7375,16.125 C16.5129852,16.125 15.5202931,17.0274474 15.5202931,18.1406427 L15.5202931,28.0486883 C12.8104339,27.6375145 10.3127224,26.4777299 8.3310709,24.6762285 C5.81858372,22.3921492 4.43488048,19.3552174 4.43488048,16.125 C4.43488048,12.8947826 5.81858372,9.85785077 8.3310709,7.57370082 C10.8436358,5.28962157 14.1842608,4.03163883 17.7375,4.03163883 C21.2907392,4.03163883 24.6313642,5.28962157 27.1439291,7.57370082 C29.656494,9.85785077 31.0401973,12.8947826 31.0401973,16.125 L31.0406639,16.125 C31.0406639,17.2381952 32.0332783,18.1406427 33.2577931,18.1406427 C34.4823856,18.1406427 35.475,17.2381952 35.475,16.125 C35.475,7.21943806 27.5336959,0 17.7375,0 M17.7375,8.0625 C18.9620148,8.0625 19.9547069,8.96494743 19.9547069,10.0781427 C19.9547069,11.1913379 18.9620148,12.0937147 17.7375,12.0937147 C16.5129852,12.0937147 15.5202931,11.1913379 15.5202931,10.0781427 C15.5202931,8.96494743 16.5129852,8.0625 17.7375,8.0625" id="Fill-5" fill="#606FFF" mask="url(#mask-2)"></path>
                </g>
            </g>
            <rect id="Rectangle" fill="#38D299" x="35.8875" y="32.1875" width="3.85" height="3.5" rx="1.75"></rect>
        </g>
    </g>
</svg>